<?xml version="1.0" standalone="no"?>
<!DOCTYPE svg PUBLIC "-//W3C//DTD SVG 20010904//EN"
 "http://www.w3.org/TR/2001/REC-SVG-20010904/DTD/svg10.dtd">
<svg version="1.0" xmlns="http://www.w3.org/2000/svg"
 width="402.000000pt" height="402.000000pt" viewBox="0 0 402.000000 402.000000"
 preserveAspectRatio="xMidYMid meet">
<metadata>
Created by potrace 1.14, written by Peter Selinger 2001-2017
</metadata>
<g transform="translate(0.000000,402.000000) scale(0.100000,-0.100000)"
fill="#000000" stroke="none">
<path d="M492 3960 c-8 -13 -12 -62 -12 -143 0 -118 1 -125 25 -151 21 -23 32
-26 88 -26 35 0 78 5 95 11 l30 10 1 145 c2 115 -1 148 -13 159 -11 11 -39 15
-108 15 -82 0 -95 -2 -106 -20z m166 -42 c16 -16 16 -190 0 -206 -7 -7 -33
-12 -60 -12 -60 0 -68 13 -68 119 0 59 4 84 16 95 18 19 94 22 112 4z"/>
<path d="M900 3822 c0 -133 3 -161 15 -166 8 -3 22 -3 30 0 13 5 15 30 13 163
l-3 156 -27 3 -28 3 0 -159z"/>
<path d="M1113 3965 c-20 -22 -18 -279 2 -295 8 -7 13 -16 10 -20 -2 -4 33 -8
78 -9 78 -2 85 0 110 25 27 26 27 29 27 156 0 99 -3 133 -14 144 -20 20 -196
19 -213 -1z m153 -43 c15 -10 27 -164 14 -196 -8 -23 -15 -26 -58 -26 -26 0
-53 5 -60 12 -16 16 -16 190 0 206 13 13 86 16 104 4z"/>
<path d="M1482 3816 c0 -156 1 -165 19 -163 18 1 19 11 19 164 0 153 -1 163
-19 163 -18 0 -19 -10 -19 -164z"/>
<path d="M1673 3965 c-9 -10 -13 -55 -13 -148 0 -127 1 -135 23 -155 20 -19
35 -22 98 -22 66 0 78 3 97 23 20 22 22 34 22 156 0 101 -3 136 -14 147 -20
20 -196 19 -213 -1z m161 -51 c20 -19 23 -183 4 -202 -7 -7 -33 -12 -60 -12
-61 0 -68 13 -68 124 0 70 3 87 18 95 26 16 89 13 106 -5z"/>
<path d="M1973 3965 c-18 -20 -18 -291 0 -309 8 -8 44 -14 95 -15 78 -2 83 -1
107 25 25 27 26 31 24 161 0 76 -5 131 -10 127 -5 -3 -9 2 -9 10 0 13 -16 16
-97 16 -72 -1 -101 -5 -110 -15z m155 -43 c9 -6 12 -36 10 -113 l-3 -104 -48
-3 c-27 -2 -55 2 -63 9 -18 15 -20 189 -2 207 14 14 86 16 106 4z"/>
<path d="M2262 3955 c-19 -41 -15 -240 4 -281 l16 -34 83 0 c76 0 84 2 109 26
25 26 26 30 26 146 0 93 -3 123 -15 135 -8 8 -13 19 -10 24 4 5 -37 9 -98 9
-102 0 -104 -1 -115 -25z m167 -39 c16 -19 16 -183 0 -202 -7 -8 -31 -14 -60
-14 -61 0 -69 13 -69 119 0 59 4 84 16 95 20 20 97 21 113 2z"/>
<path d="M2652 3955 c-7 -16 -12 -78 -12 -154 0 -111 2 -130 18 -144 29 -27
49 -20 43 16 0 4 4 7 9 7 16 0 12 261 -4 283 -19 24 -41 21 -54 -8z"/>
<path d="M2798 3949 c-14 -23 -18 -53 -18 -124 0 -52 4 -97 10 -100 6 -3 10
-16 10 -28 1 -47 21 -57 110 -57 78 0 84 2 106 28 22 25 24 35 24 150 0 75 -4
122 -10 122 -5 0 -10 9 -10 20 0 19 -7 20 -102 20 l-103 0 -17 -31z m163 -29
c17 -9 19 -22 19 -103 0 -59 -4 -97 -12 -105 -7 -7 -33 -12 -60 -12 -60 0 -68
13 -68 119 0 59 4 84 16 95 18 18 76 21 105 6z"/>
<path d="M3140 3816 c0 -140 2 -165 16 -170 43 -17 44 -14 44 164 l0 170 -30
0 -30 0 0 -164z"/>
<path d="M3333 3965 c-18 -20 -17 -283 0 -307 17 -21 192 -24 214 -3 19 20 19
291 -1 311 -20 20 -196 19 -213 -1z m165 -152 l-3 -108 -49 -3 c-27 -2 -53 1
-57 5 -10 10 -20 163 -12 192 5 18 13 21 65 21 l59 0 -3 -107z"/>
<path d="M3612 3960 c-8 -13 -12 -62 -12 -141 0 -115 8 -153 34 -172 18 -13
179 -6 193 9 20 19 18 290 -1 310 -11 10 -40 14 -108 14 -82 0 -95 -2 -106
-20z m166 -42 c8 -8 12 -46 12 -103 0 -57 -4 -95 -12 -103 -7 -7 -34 -12 -60
-12 -43 0 -50 3 -58 26 -17 42 -12 170 6 188 18 19 94 22 112 4z"/>
<path d="M492 3560 c-8 -13 -12 -63 -12 -148 0 -122 1 -130 24 -151 21 -20 33
-22 107 -20 52 1 88 7 96 15 20 19 18 290 -1 310 -11 10 -40 14 -108 14 -82 0
-95 -2 -106 -20z m159 -40 c17 -9 19 -22 19 -100 0 -119 -1 -120 -66 -120 -67
0 -74 11 -74 119 0 59 4 84 16 95 18 18 76 21 105 6z"/>
<path d="M833 3565 c-9 -10 -13 -57 -13 -156 0 -170 -1 -168 110 -168 111 0
110 -2 110 168 0 110 -3 146 -14 157 -20 20 -176 19 -193 -1z m157 -50 c9 -10
13 -48 14 -107 0 -75 -3 -92 -17 -103 -21 -15 -103 -13 -120 4 -17 17 -16 184
2 204 18 22 103 23 121 2z"/>
<path d="M1193 3565 c-9 -10 -13 -57 -13 -155 0 -146 6 -170 44 -170 14 0 16
22 16 170 0 155 -2 170 -17 170 -10 -1 -24 -7 -30 -15z"/>
<path d="M1393 3565 c-9 -10 -13 -56 -13 -154 0 -117 2 -140 16 -145 8 -3 12
-10 9 -16 -4 -6 26 -10 83 -10 80 0 91 2 110 23 20 22 22 34 22 156 0 101 -3
136 -14 147 -20 20 -196 19 -213 -1z m161 -51 c20 -19 23 -183 4 -202 -7 -7
-33 -12 -58 -12 -25 0 -51 5 -58 12 -8 8 -12 45 -12 99 0 102 10 119 70 119
22 0 45 -7 54 -16z"/>
<path d="M1763 3437 c2 -123 0 -146 -15 -160 -9 -9 -22 -17 -28 -17 -6 0 -18
-7 -27 -15 -8 -8 -20 -12 -26 -8 -7 3 -9 2 -4 -2 9 -10 -43 -46 -55 -39 -5 3
-7 2 -6 -3 4 -12 -71 -77 -79 -69 -3 3 -1 6 6 6 9 0 8 4 -3 15 -8 8 -21 15
-29 15 -17 0 -30 -27 -20 -42 3 -7 1 -8 -5 -4 -8 5 -12 -3 -12 -26 0 -25 3
-29 10 -18 5 8 10 11 10 7 0 -9 -38 -67 -50 -77 -4 -3 -17 -24 -30 -47 -13
-23 -28 -39 -33 -36 -6 3 -7 1 -3 -5 6 -10 -40 -120 -55 -132 -3 -3 -9 -18
-12 -35 -3 -16 -12 -52 -19 -80 -14 -56 -18 -297 -5 -360 8 -37 7 -38 -5 -15
-13 24 -19 25 -106 28 -71 2 -96 -1 -107 -12 -21 -21 -22 -291 -1 -312 10 -10
39 -14 99 -14 74 0 86 3 105 23 19 20 21 35 23 141 1 73 4 113 10 105 5 -8 9
-23 9 -34 0 -12 4 -25 10 -31 5 -5 11 -22 12 -37 1 -15 6 -27 10 -27 4 0 8 -9
8 -20 0 -11 5 -20 10 -20 6 0 10 -9 10 -20 0 -11 5 -20 10 -20 6 0 10 -12 10
-27 0 -14 3 -24 6 -20 8 7 64 -56 58 -65 -3 -5 -30 -8 -60 -8 -32 0 -61 -6
-68 -13 -16 -16 -38 -104 -34 -137 2 -20 -2 -26 -21 -28 -14 -2 -34 -10 -46
-18 -12 -8 -25 -11 -28 -7 -4 3 -7 51 -7 105 0 88 -2 98 -18 98 -36 0 -42 -20
-42 -149 l0 -126 -52 -70 c-29 -38 -60 -77 -70 -86 -10 -9 -18 -20 -18 -25 0
-11 -45 -64 -54 -64 -3 0 -6 16 -6 36 0 38 -18 64 -44 64 -14 0 -16 -16 -16
-99 0 -86 -3 -102 -22 -127 -12 -16 -25 -31 -28 -34 -3 -3 -16 -22 -30 -42
-14 -21 -28 -38 -32 -38 -5 0 -8 -6 -8 -12 -1 -20 -53 -75 -58 -60 -2 8 -28
12 -79 12 -70 0 -77 -2 -99 -27 -22 -26 -24 -36 -24 -149 0 -127 -3 -135 -57
-192 -7 -7 -13 -16 -13 -20 0 -4 -14 -22 -30 -41 -17 -18 -30 -36 -30 -40 0
-3 -14 -21 -30 -40 -17 -18 -30 -37 -30 -40 0 -3 -10 -18 -22 -31 -34 -38 -68
-88 -68 -100 0 -5 -4 -10 -10 -10 -15 0 -12 -117 4 -148 15 -28 73 -86 116
-113 14 -9 36 -26 49 -38 13 -11 27 -21 30 -21 3 0 24 -16 46 -35 22 -19 47
-35 57 -35 9 0 20 -4 23 -10 24 -39 205 40 205 90 0 5 5 10 10 10 6 0 10 6 10
13 0 7 9 19 20 27 11 8 20 20 20 27 0 7 5 13 10 13 6 0 10 6 10 13 0 7 9 19
20 27 11 8 20 20 20 26 0 6 14 25 30 42 17 18 30 35 30 40 0 4 16 25 35 46 19
21 35 41 35 45 0 3 14 21 30 40 17 18 30 37 30 40 0 3 10 17 23 31 12 14 33
41 47 60 13 19 27 37 30 40 3 3 17 21 30 40 13 19 27 37 30 40 3 3 17 21 30
40 13 19 27 37 31 40 3 3 12 16 18 28 15 28 18 26 26 -17 7 -43 12 -51 31 -51
8 0 14 -4 14 -10 0 -6 30 -10 70 -10 40 0 70 4 70 10 0 6 3 9 8 9 20 -3 32 2
32 16 0 8 5 15 10 15 6 0 10 49 10 128 0 115 -2 130 -20 150 -12 12 -25 22
-30 22 -6 0 -10 7 -10 15 0 8 3 15 8 15 4 0 15 14 25 32 10 18 21 28 25 22 17
-22 56 -34 117 -34 37 0 65 4 65 10 0 6 7 10 15 10 8 0 22 16 31 36 14 29 16
52 10 132 -9 133 -14 152 -40 152 -17 0 -18 2 -6 10 11 7 -1 10 -41 10 -31 0
-59 3 -62 6 -10 11 13 45 25 38 6 -4 8 -3 4 4 -3 6 -1 17 6 24 7 8 18 23 25
33 6 11 16 19 23 17 6 -1 9 2 6 6 -3 5 3 19 13 31 l18 21 47 -20 c26 -12 46
-28 46 -36 0 -41 19 -44 262 -44 222 0 234 1 248 20 20 28 76 28 85 0 6 -18
15 -20 101 -20 119 0 124 4 124 100 0 58 3 72 18 77 9 4 38 29 64 55 26 26 49
48 52 48 3 0 6 -63 6 -140 l0 -140 30 0 31 0 -1 173 c-2 176 7 227 37 227 25
0 43 27 43 64 0 20 5 36 10 36 6 0 10 9 10 20 0 11 5 20 10 20 6 0 10 14 10
30 0 17 4 30 9 30 12 0 34 94 49 212 7 56 22 90 22 52 0 -11 12 -24 27 -31 32
-15 153 -17 153 -3 0 6 9 10 20 10 13 0 20 7 20 20 0 11 5 20 10 20 6 0 10 47
10 123 0 114 -2 124 -24 150 -22 25 -28 27 -106 27 -72 0 -85 -3 -101 -22 -11
-11 -20 -28 -21 -37 0 -9 -2 -29 -4 -46 -3 -48 -5 -51 -14 -30 -5 11 -9 37 -9
58 -1 20 -5 37 -11 37 -5 0 -10 14 -10 30 0 17 -4 30 -10 30 -5 0 -10 9 -10
20 0 13 7 20 20 20 13 0 20 7 20 20 0 11 5 20 10 20 6 0 10 48 10 125 0 120
-1 127 -25 150 -21 22 -33 25 -101 25 -65 0 -81 -3 -100 -21 -13 -12 -20 -28
-17 -38 3 -10 -4 -7 -19 9 -14 14 -33 30 -44 37 -10 6 -18 16 -17 22 2 6 -3
10 -10 8 -6 -1 -11 4 -9 11 1 8 -2 11 -7 8 -5 -4 -16 1 -24 9 -9 8 -20 15 -26
15 -5 0 -12 4 -15 8 -3 5 25 10 62 12 37 1 72 3 79 3 7 0 11 5 10 11 -1 6 4
10 11 9 9 -2 12 32 12 148 0 97 -4 148 -10 144 -5 -3 -10 1 -10 9 0 23 -184
23 -206 1 -12 -12 -14 -41 -12 -153 3 -135 2 -139 -17 -134 -40 11 -45 27 -45
137 0 92 -3 111 -21 136 -20 28 -23 29 -106 29 -76 0 -88 -2 -105 -22 -17 -20
-19 -35 -16 -109 l3 -86 -28 1 -29 1 0 97 c0 69 -3 97 -11 95 -7 -1 -11 4 -9
11 3 19 -185 17 -204 -2 -10 -11 -14 -42 -14 -120 l0 -106 -40 0 c-22 0 -40
-4 -40 -10 0 -5 -10 -10 -23 -10 -13 0 -28 -5 -35 -12 -6 -6 -15 -9 -18 -5 -4
4 -6 68 -5 142 2 129 1 135 -18 135 -19 0 -20 -6 -18 -143z m365 81 c7 -7 12
-40 12 -80 0 -60 -2 -68 -19 -68 -10 0 -39 -3 -65 -6 l-46 -7 0 76 c0 62 3 78
18 86 24 14 85 14 100 -1z m294 0 c18 -14 35 -164 21 -185 -6 -9 -24 -7 -73 6
l-65 18 -3 69 c-3 61 0 71 19 86 25 21 78 24 101 6z m312 -4 c12 -11 16 -36
16 -95 0 -106 -8 -119 -68 -119 -27 0 -53 5 -60 12 -8 8 -12 45 -12 99 0 102
10 119 70 119 22 0 45 -7 54 -16z m236 -429 c20 -24 17 -182 -3 -202 -14 -14
-16 -13 -28 8 -6 13 -32 55 -57 92 -39 60 -43 71 -34 93 10 21 18 24 61 24 31
0 53 -5 61 -15z m-675 -53 c195 -60 342 -198 396 -371 27 -87 36 -231 19 -302
-40 -168 -155 -315 -304 -391 -23 -12 -46 -28 -53 -37 -7 -9 -13 -11 -13 -4 0
8 -14 7 -47 -4 -27 -8 -89 -15 -143 -16 -79 0 -108 4 -175 27 -200 69 -348
232 -385 424 -19 93 -8 232 23 314 73 192 242 336 429 367 91 15 189 12 253
-7z m935 -351 c5 -11 10 -54 10 -96 0 -101 -8 -115 -68 -115 -27 0 -53 5 -60
12 -16 16 -16 190 0 206 7 7 33 12 60 12 37 0 50 -4 58 -19z m-183 -118 c-3
-10 -5 -4 -5 12 0 17 2 24 5 18 2 -7 2 -21 0 -30z m-1838 -307 c8 -9 11 -48 9
-112 l-3 -99 -60 0 -60 0 -3 100 c-2 85 0 102 15 112 23 17 88 16 102 -1z
m266 -406 c4 -7 -90 -140 -100 -140 -2 0 -10 3 -19 6 -20 8 -22 102 -3 127 18
23 109 29 122 7z m1132 -194 c-7 -17 -68 -27 -104 -17 -26 7 -24 9 37 37 61
29 65 29 68 12 2 -11 1 -25 -1 -32z m-911 -224 c18 -12 24 -177 7 -201 -14
-21 -71 -29 -107 -15 -23 9 -20 18 20 78 27 42 36 65 36 100 1 46 15 58 44 38z
m-1050 -407 c-8 -22 -100 -144 -108 -145 -5 0 -8 27 -8 60 0 75 20 100 81 100
32 0 40 -3 35 -15z m815 5 c17 -9 19 -22 19 -103 0 -59 -4 -97 -12 -105 -7 -7
-33 -12 -60 -12 -55 0 -68 15 -68 77 0 30 10 50 45 96 50 62 48 61 76 47z"/>
<path d="M2110 2847 l0 -83 -44 -12 c-24 -6 -65 -29 -93 -50 -49 -39 -49 -39
-72 -21 -25 20 -35 18 -51 -11 -8 -15 -5 -22 19 -36 l28 -17 -18 -48 c-11 -27
-19 -70 -19 -95 l0 -47 -83 5 -84 4 0 -27 c0 -27 0 -27 93 -34 83 -7 94 -10
100 -28 4 -12 28 -44 55 -72 l48 -51 -39 -45 -39 -46 21 -18 c21 -17 22 -16
67 35 43 49 48 51 74 41 16 -6 48 -11 73 -11 l44 0 0 -40 c0 -36 3 -40 25 -40
23 0 25 4 25 45 0 41 3 46 34 59 19 8 52 31 74 51 l41 36 70 -40 c38 -23 74
-41 80 -41 10 0 36 39 29 44 -2 2 -36 21 -76 42 -61 32 -72 42 -67 59 3 11 11
47 17 80 6 33 13 62 15 65 2 2 28 7 56 10 47 5 52 7 55 31 l3 26 -70 -5 c-59
-4 -71 -2 -71 11 0 8 -16 38 -36 67 l-36 52 21 22 21 23 -20 18 c-20 18 -21
18 -48 -8 -25 -24 -30 -25 -48 -12 -12 8 -43 18 -70 22 l-49 8 -3 83 c-3 80
-4 82 -27 82 -25 0 -25 -2 -25 -83z m98 -173 c31 -21 31 -87 0 -108 -51 -36
-108 -7 -108 54 0 42 26 70 65 70 11 0 31 -7 43 -16z m92 -19 c0 -19 -20 -29
-32 -17 -8 8 -7 16 2 26 14 17 30 12 30 -9z m-265 -45 c11 -35 -3 -60 -35 -60
-31 0 -51 24 -42 50 12 35 67 42 77 10z m39 -142 c48 -21 54 -99 11 -136 -55
-47 -135 -9 -135 65 0 64 62 100 124 71z m140 -4 c9 -8 16 -22 16 -29 0 -7 -7
-21 -16 -29 -8 -9 -22 -16 -29 -16 -16 0 -45 27 -45 42 0 16 31 48 46 48 7 0
20 -7 28 -16z m168 -21 c20 -18 24 -73 6 -91 -7 -7 -25 -12 -42 -12 -59 0 -87
59 -46 100 24 24 57 26 82 3z m-162 -135 c0 -15 -32 -21 -40 -7 -13 20 9 43
26 28 8 -6 14 -16 14 -21z"/>
<path d="M2880 3410 l0 -170 30 0 30 0 0 170 0 170 -30 0 -30 0 0 -170z"/>
<path d="M3052 3547 c-15 -41 -16 -267 -2 -267 6 0 10 -7 10 -16 0 -8 5 -12
10 -9 6 3 10 1 10 -4 0 -7 35 -11 96 -11 52 0 93 4 90 8 -3 5 4 15 15 22 17
13 19 27 19 142 0 79 -4 128 -10 128 -5 0 -10 9 -10 20 0 19 -7 20 -108 20
l-108 0 -12 -33z m176 -39 c16 -16 16 -180 0 -196 -7 -7 -33 -12 -58 -12 -25
0 -51 5 -58 12 -16 16 -16 180 0 196 16 16 100 16 116 0z"/>
<path d="M3413 3573 c-19 -7 -18 -291 1 -315 16 -22 33 -23 52 -4 19 19 21
295 2 314 -12 12 -33 14 -55 5z"/>
<path d="M3613 3565 c-18 -20 -18 -264 0 -297 12 -24 18 -25 105 -27 70 -2 96
1 107 13 21 21 22 291 1 312 -20 20 -196 19 -213 -1z m171 -67 c10 -37 7 -158
-4 -179 -8 -15 -22 -19 -61 -19 -60 0 -63 5 -64 110 0 105 3 110 69 110 47 0
54 -3 60 -22z"/>
<path d="M506 3134 c-25 -26 -26 -31 -26 -143 0 -105 2 -119 23 -144 20 -25
28 -27 99 -30 115 -3 118 2 118 169 l0 133 -29 20 c-22 16 -44 21 -94 21 -56
0 -68 -3 -91 -26z m156 -46 c9 -15 11 -179 2 -202 -5 -12 -20 -16 -60 -16 -69
0 -76 13 -72 127 3 82 5 88 28 101 29 15 89 9 102 -10z"/>
<path d="M920 3149 c0 -5 -4 -7 -10 -4 -7 4 -10 -52 -10 -159 l0 -166 30 0 30
0 0 156 c0 121 -3 159 -14 170 -17 17 -26 18 -26 3z"/>
<path d="M1113 3145 c-9 -10 -13 -57 -13 -155 0 -176 -1 -175 118 -175 79 0
85 2 105 27 21 25 22 35 17 146 -7 163 -13 172 -130 172 -60 -1 -89 -5 -97
-15z m161 -54 c3 -4 7 -52 8 -105 2 -77 0 -99 -12 -106 -19 -12 -91 -10 -107
3 -17 13 -18 188 -1 205 14 14 104 16 112 3z"/>
<path d="M3140 2990 l0 -170 30 0 30 0 0 170 0 170 -30 0 -30 0 0 -170z"/>
<path d="M3343 3148 c1 -7 -4 -12 -10 -10 -10 1 -13 -32 -13 -144 0 -151 6
-174 44 -174 9 0 16 -4 16 -10 0 -6 27 -10 60 -10 33 0 60 4 60 10 0 6 7 10
16 10 38 0 44 23 44 174 0 126 -2 146 -16 146 -8 0 -12 5 -9 10 4 6 -30 10
-94 10 -76 0 -100 -3 -98 -12z m155 -160 l3 -108 -61 0 c-41 0 -60 4 -61 13
-6 49 -4 168 3 186 7 19 14 22 60 19 l53 -3 3 -107z"/>
<path d="M3622 3137 c-20 -22 -22 -33 -22 -156 0 -167 -1 -166 120 -166 122 0
120 -2 120 179 0 126 -2 146 -16 146 -8 0 -13 4 -10 9 3 4 -34 9 -82 10 -80 2
-89 0 -110 -22z m156 -49 c8 -8 12 -46 12 -105 0 -81 -2 -94 -19 -103 -24 -13
-81 -13 -101 0 -19 12 -27 152 -11 193 9 24 15 27 59 27 26 0 53 -5 60 -12z"/>
<path d="M503 2732 c-21 -25 -23 -37 -23 -153 0 -136 1 -138 62 -168 35 -18
129 -6 158 19 20 17 21 27 19 164 0 80 -4 144 -9 141 -4 -3 -13 2 -20 10 -9
11 -33 15 -89 15 -71 0 -78 -2 -98 -28z m155 -44 c16 -16 16 -190 0 -206 -7
-7 -33 -12 -60 -12 -37 0 -50 4 -58 19 -13 25 -13 151 0 185 8 23 15 26 58 26
26 0 53 -5 60 -12z"/>
<path d="M1192 2740 c-16 -26 -17 -301 -1 -317 6 -6 19 -8 30 -6 18 5 19 16
19 174 0 155 -1 169 -18 169 -9 0 -23 -9 -30 -20z"/>
<path d="M3412 2740 c-17 -28 -17 -306 0 -316 18 -11 48 -12 48 -2 0 5 5 6 10
3 7 -4 10 48 10 150 0 122 -3 160 -14 171 -20 20 -39 18 -54 -6z"/>
<path d="M3622 2737 c-20 -22 -22 -34 -22 -156 0 -94 4 -136 13 -145 26 -27
58 -36 119 -36 52 0 66 4 78 19 7 11 17 18 22 15 4 -3 8 65 8 150 0 135 -2
156 -16 156 -8 0 -12 5 -9 10 4 6 -26 10 -83 10 -80 0 -91 -2 -110 -23z m158
-56 c17 -32 13 -177 -6 -195 -17 -18 -80 -21 -104 -6 -20 13 -21 180 -1 204
20 24 97 22 111 -3z"/>
<path d="M830 2736 c-15 -15 -13 -289 2 -304 18 -18 175 -16 194 2 11 11 14
47 14 159 l0 145 -35 6 c-51 10 -162 5 -175 -8z m160 -51 c18 -22 19 -190 2
-207 -16 -16 -107 -17 -123 -1 -17 17 -18 185 0 206 18 22 103 23 121 2z"/>
<path d="M492 2300 c-8 -13 -12 -63 -12 -148 0 -122 1 -130 24 -151 21 -20 33
-22 107 -20 52 1 88 7 96 15 9 9 13 53 13 155 0 173 3 168 -125 169 -79 0 -92
-2 -103 -20z m159 -40 c17 -9 19 -22 19 -103 0 -59 -4 -97 -12 -105 -7 -7 -33
-12 -60 -12 -60 0 -68 13 -68 119 0 59 4 84 16 95 18 18 76 21 105 6z"/>
<path d="M860 2156 c0 -144 2 -165 17 -170 9 -4 20 -1 25 6 9 15 11 288 2 312
-3 9 -15 16 -25 16 -18 0 -19 -10 -19 -164z"/>
<path d="M3080 2150 l0 -170 30 0 30 0 0 170 0 170 -30 0 -30 0 0 -170z"/>
<path d="M3293 2305 c-19 -22 -18 -291 1 -311 10 -10 39 -14 99 -14 74 0 86 3
105 23 20 21 22 33 22 148 -1 165 -4 169 -127 169 -63 -1 -92 -5 -100 -15z
m150 -48 c15 -10 17 -27 15 -112 l-3 -100 -60 0 -60 0 -3 100 c-3 111 4 125
63 125 17 0 39 -6 48 -13z"/>
<path d="M3613 2305 c-17 -18 -18 -264 -2 -298 10 -23 16 -25 105 -26 72 -2
98 2 109 13 12 12 15 46 15 166 0 98 -4 149 -10 145 -5 -3 -10 -1 -10 4 0 18
-192 14 -207 -4z m169 -59 c12 -17 9 -165 -2 -187 -8 -15 -22 -19 -61 -19 -56
0 -55 -1 -64 88 -8 86 1 130 29 135 31 6 90 -4 98 -17z"/>
<path d="M500 1905 c0 -8 -4 -15 -10 -15 -15 0 -13 -252 3 -282 12 -24 18 -25
105 -27 70 -2 96 1 107 13 21 21 22 291 1 312 -21 21 -206 20 -206 -1z m154
-51 c23 -22 23 -186 0 -208 -22 -23 -80 -20 -104 4 -17 17 -20 33 -20 98 0 90
10 109 60 115 19 2 38 5 42 5 4 1 14 -5 22 -14z"/>
<path d="M776 1895 c-13 -19 -16 -51 -16 -148 0 -162 4 -167 127 -167 70 0 88
3 99 18 20 25 19 288 0 308 -11 10 -40 14 -104 14 -84 0 -91 -1 -106 -25z
m155 -35 c17 -10 19 -22 19 -110 0 -109 -6 -120 -67 -120 -57 0 -64 15 -61
125 l3 100 40 6 c22 3 41 7 43 8 2 0 12 -4 23 -9z"/>
<path d="M3002 1895 c-20 -23 -22 -36 -22 -140 0 -110 8 -147 35 -167 14 -10
197 -10 191 0 -3 5 4 15 15 22 17 13 19 27 19 143 0 83 -4 126 -10 122 -5 -3
-10 1 -10 9 0 9 -5 16 -11 16 -5 0 -7 5 -4 10 4 6 -28 10 -88 10 -87 0 -95 -2
-115 -25z m168 -54 c14 -28 13 -174 -2 -189 -16 -16 -100 -16 -116 0 -16 16
-16 180 0 196 7 7 33 12 60 12 37 0 50 -4 58 -19z"/>
<path d="M3360 1750 l0 -170 30 0 30 0 0 170 0 170 -30 0 -30 0 0 -170z"/>
<path d="M3613 1905 c-19 -22 -18 -291 1 -311 11 -10 40 -14 106 -14 66 0 95
4 106 14 11 11 14 47 14 156 0 109 -3 145 -14 156 -20 20 -196 19 -213 -1z
m171 -61 c8 -20 8 -152 0 -181 -6 -20 -13 -23 -60 -23 -29 0 -55 4 -59 10 -10
17 -14 160 -5 185 9 22 15 25 64 25 40 0 55 -4 60 -16z"/>
<path d="M555 1492 c-16 -2 -40 -13 -52 -25 -21 -19 -23 -29 -23 -135 0 -99 3
-118 21 -143 20 -28 23 -29 106 -29 113 0 112 -1 113 164 0 119 -2 130 -22
147 -11 11 -24 19 -27 20 -25 3 -91 4 -116 1z m103 -64 c8 -8 12 -46 12 -105
0 -88 -1 -93 -25 -109 -31 -20 -90 -11 -105 16 -13 25 -13 166 0 191 8 15 21
19 58 19 27 0 53 -5 60 -12z"/>
<path d="M1857 1482 c-10 -10 -17 -24 -17 -30 0 -7 -4 -12 -10 -12 -6 0 -10
-45 -10 -114 0 -66 4 -117 10 -121 6 -3 10 -15 10 -26 0 -12 7 -19 20 -19 11
0 20 -4 20 -10 0 -14 126 -13 153 2 45 24 47 31 47 168 0 126 -1 132 -25 155
-21 22 -33 25 -103 25 -64 0 -82 -4 -95 -18z m151 -54 c8 -8 12 -46 12 -103 0
-57 -4 -95 -12 -103 -14 -14 -87 -16 -108 -2 -12 7 -15 31 -15 105 0 74 3 98
15 105 21 14 94 12 108 -2z"/>
<path d="M2145 1468 c-27 -32 -27 -33 -20 -142 9 -157 10 -163 47 -170 48 -9
135 -7 160 4 13 6 29 23 36 37 15 32 17 229 2 238 -5 3 -10 13 -10 22 0 30
-33 42 -112 43 -74 0 -77 -1 -103 -32z m165 -47 c5 -11 10 -54 10 -96 0 -101
-8 -115 -68 -115 -27 0 -53 5 -60 12 -8 8 -12 46 -12 103 0 57 4 95 12 103 7
7 33 12 60 12 37 0 50 -4 58 -19z"/>
<path d="M2520 1325 c0 -184 0 -186 44 -169 14 5 16 29 16 161 0 160 -6 183
-44 183 -14 0 -16 -23 -16 -175z"/>
<path d="M2722 1477 c-20 -22 -22 -33 -22 -158 l0 -134 35 -22 c27 -18 49 -23
100 -23 37 0 65 4 65 10 0 6 9 10 20 10 19 0 20 7 20 156 0 121 -3 159 -14
170 -10 10 -39 14 -99 14 -74 0 -86 -3 -105 -23z m156 -49 c8 -8 12 -46 12
-103 0 -57 -4 -95 -12 -103 -7 -7 -30 -12 -53 -12 -23 0 -46 5 -53 12 -16 16
-16 190 0 206 7 7 30 12 53 12 23 0 46 -5 53 -12z"/>
<path d="M3080 1334 c0 -145 2 -168 17 -179 35 -26 43 3 43 165 0 157 -6 180
-44 180 -14 0 -16 -22 -16 -166z"/>
<path d="M3293 1485 c-9 -10 -13 -59 -13 -170 0 -148 1 -155 20 -155 11 0 20
-4 20 -10 0 -14 126 -13 153 2 45 24 47 31 47 170 0 131 -1 135 -25 156 -22
19 -37 22 -108 22 -58 -1 -86 -5 -94 -15z m155 -57 c8 -8 12 -47 12 -109 0
-79 -3 -98 -16 -103 -27 -10 -89 -7 -102 6 -16 16 -16 190 0 206 7 7 30 12 53
12 23 0 46 -5 53 -12z"/>
<path d="M3622 1477 c-20 -22 -22 -33 -22 -156 0 -133 0 -134 28 -157 23 -20
38 -24 97 -24 58 0 73 3 85 19 7 11 17 18 22 15 4 -3 8 63 8 146 0 118 -3 155
-14 166 -10 10 -39 14 -99 14 -74 0 -86 -3 -105 -23z m158 -56 c5 -11 10 -56
10 -100 0 -93 -11 -111 -68 -111 -62 0 -67 8 -67 115 0 109 4 115 72 115 32 0
45 -5 53 -19z"/>
<path d="M1627 1093 c-11 -10 -8 -345 2 -338 5 3 12 1 16 -5 4 -6 11 -5 21 4
20 21 21 311 0 332 -16 15 -29 18 -39 7z"/>
<path d="M1862 1084 c-12 -8 -22 -22 -22 -30 0 -8 -4 -14 -10 -14 -6 0 -10
-47 -10 -120 0 -73 4 -120 10 -120 6 0 10 -7 10 -16 0 -31 32 -43 113 -44 70
0 81 3 102 25 24 23 25 29 25 155 0 126 -1 132 -25 155 -21 22 -33 25 -97 25
-50 0 -81 -5 -96 -16z m139 -54 c17 -10 19 -22 19 -109 0 -111 0 -111 -76
-111 -39 0 -46 3 -54 26 -6 14 -10 57 -10 95 0 56 4 73 20 89 22 22 70 26 101
10z"/>
<path d="M2146 1073 c-27 -27 -27 -28 -24 -154 3 -119 5 -129 27 -153 22 -23
32 -26 92 -26 38 0 79 5 92 11 38 17 50 71 45 191 -6 112 -12 138 -35 138 -8
0 -11 5 -8 10 4 6 -24 10 -78 10 -78 0 -86 -2 -111 -27z m154 -53 c16 -16 20
-33 20 -96 0 -100 -8 -114 -68 -114 -27 0 -53 5 -60 12 -13 13 -17 175 -4 194
19 29 85 31 112 4z"/>
<path d="M2443 1075 c-21 -23 -23 -33 -23 -156 0 -131 0 -132 28 -155 23 -20
38 -24 95 -24 48 0 73 5 84 15 8 8 19 13 24 10 5 -4 9 59 9 154 0 124 -3 160
-12 159 -7 -2 -12 3 -10 10 1 9 -21 12 -85 11 -80 0 -90 -3 -110 -24z m151
-51 c12 -11 16 -36 16 -99 0 -110 -3 -115 -55 -115 -75 0 -75 0 -75 111 0 83
3 100 18 108 26 16 79 13 96 -5z"/>
<path d="M2825 1090 c-4 -6 -11 -8 -16 -5 -5 4 -9 -61 -9 -163 l0 -169 23 3
c12 1 25 3 30 3 4 1 7 71 7 157 0 122 -3 159 -14 170 -10 9 -17 10 -21 4z"/>
<path d="M3006 1074 c-25 -26 -26 -30 -26 -153 0 -118 2 -128 24 -153 21 -26
29 -28 94 -28 80 0 122 14 122 42 0 10 5 18 10 18 6 0 10 47 10 120 0 73 -4
120 -10 120 -5 0 -10 7 -10 16 0 33 -26 44 -108 44 -72 0 -82 -2 -106 -26z
m154 -54 c16 -16 20 -33 20 -96 0 -100 -8 -114 -68 -114 -27 0 -53 5 -60 12
-8 8 -12 46 -12 105 0 88 1 94 23 103 37 15 76 11 97 -10z"/>
<path d="M3373 1085 c-9 -10 -13 -59 -13 -165 0 -157 6 -180 44 -180 14 0 16
23 16 180 0 165 -1 180 -17 180 -10 -1 -24 -7 -30 -15z"/>
<path d="M3627 1072 c-26 -27 -27 -31 -27 -153 0 -118 1 -127 23 -147 13 -12
27 -19 30 -15 4 3 7 1 7 -5 0 -8 22 -12 65 -12 57 0 69 3 90 25 24 23 25 29
25 159 l0 135 -29 20 c-22 16 -44 21 -93 21 -57 0 -67 -3 -91 -28z m145 -49
c15 -13 18 -31 18 -103 0 -53 -5 -91 -12 -98 -7 -7 -34 -12 -60 -12 -43 0 -50
3 -58 26 -6 14 -10 57 -10 95 0 56 4 73 20 89 24 24 77 26 102 3z"/>
</g>
</svg>
